<svg width="128" height="128" viewBox="0 0 128 128">
	<path
		d="m 11.100701,28.918647 c -0.733282,2.498112 0.271805,6.043759 5.054815,9.156148 l 1.383026,0.922199 -1.959273,4.726239 -1.901712,4.726259 -4.0914828,-0.345838 c -5.0711363,-0.461087 -7.4338298,0.691648 -8.3558571,4.149869 -0.80676279,2.824233 -0.80676279,20.576465 0,23.400671 0.9220273,3.458223 3.2847208,4.611007 8.3558571,4.149893 l 4.0914828,-0.345811 1.901712,4.726237 1.959273,4.726237 -1.383026,0.922202 c -4.840651,3.170013 -6.511817,6.109526 -5.244025,9.394845 0.749152,2.017283 15.789701,17.060593 17.806615,17.809853 3.28472,1.26804 6.223692,-0.40346 9.393164,-5.24496 l 0.921998,-1.38325 4.725401,1.95964 4.782996,1.90204 -0.403358,3.86169 c -0.461044,4.78384 0.518608,7.14695 3.457595,8.41499 2.420273,0.97983 20.687947,1.15276 24.087919,0.17298 3.457578,-0.92217 4.610089,-3.28534 4.149106,-8.35736 l -0.345779,-4.09224 4.725403,-1.90204 4.725371,-1.95962 0.922028,1.38327 c 3.169469,4.84149 6.108413,6.51299 9.450777,5.24494 2.016903,-0.80692 16.999813,-15.79255 17.748973,-17.809865 1.26779,-3.285319 -0.40339,-6.224802 -5.24404,-9.394842 l -1.38303,-0.922203 1.95933,-4.72626 1.90163,-4.726236 4.09153,0.345807 c 3.51521,0.288184 4.3796,0.172979 5.93552,-0.806923 2.5932,-1.613819 3.05421,-3.91931 3.05421,-15.043253 0,-11.123993 -0.46101,-13.429483 -3.05421,-15.043305 -1.55592,-0.979803 -2.42031,-1.095082 -5.93552,-0.806924 l -4.09153,0.345811 -1.90163,-4.726236 -1.95933,-4.726235 1.38303,-0.9222 c 4.84065,-3.17004 6.51183,-6.109524 5.24404,-9.394818 C 116.31054,26.662714 101.27001,11.619461 99.253085,10.870138 95.968363,9.6021259 93.029419,11.2736 89.85995,16.115113 l -0.922028,1.38329 -4.725371,-1.959631 -4.725403,-1.902054 0.345779,-4.0922441 C 80.29391,4.4724293 79.141399,2.1092863 75.683821,1.187137 c -2.708459,-0.74932264 -21.033727,-0.74932264 -23.68453,0 v -5.46e-5 c -1.152542,0.3458613 -2.362723,1.2680633 -3.054237,2.4207942 -0.979653,1.5561705 -1.094917,2.4207698 -0.806747,5.9365943 l 0.345749,4.0922421 -4.725387,1.902056 -4.725401,1.959631 -0.921998,-1.440943 c -0.491149,-0.767591 -5.354422,-6.544866 -9.364521,-5.187393 -3.138626,1.062467 -6.480682,4.548649 -9.48592,7.527247 -3.005237,2.978599 -7.426846,8.023224 -8.160128,10.521336 z"
		style="fill: #e0dffe; stroke: #000000; stroke-width: 1.25;"
		id="outer"
	/>
	<path
		d="m 15.593752,30.973996 c 0,0.288205 1.15251,1.383288 2.593191,2.420768 2.535555,1.844403 4.321982,4.322771 4.321982,6.051897 0,2.074934 -4.206747,11.06634 -5.820302,12.622536 -1.671166,1.556303 -2.016946,1.613868 -6.166038,1.440891 L 6.0853511,53.33711 v 21.325734 l 4.4372339,-0.172977 c 4.149092,-0.172878 4.494872,-0.115222 6.166038,1.440941 1.613555,1.556196 5.820302,10.547602 5.820302,12.622537 0,1.729123 -1.786427,4.207496 -4.321982,6.051902 -1.440681,1.037476 -2.593191,2.132564 -2.593191,2.478423 0,0.806898 14.521879,15.33144 15.328655,15.33144 0.345779,0 1.440666,-1.15271 2.477929,-2.59366 1.844069,-2.53604 4.322013,-4.32279 6.050802,-4.32279 2.07457,0 11.06433,4.20754 12.620246,5.82138 1.555827,1.67143 1.613617,2.01728 1.440652,6.16712 l -0.172964,4.43806 h 21.321835 l -0.17295,-4.43806 c -0.172874,-4.14984 -0.115186,-4.49567 1.440635,-6.16712 1.555944,-1.61384 10.545689,-5.82138 12.620228,-5.82138 1.728821,0 4.206749,1.78677 6.050822,4.32279 1.03727,1.44095 2.13219,2.59366 2.47792,2.59366 0.80678,0 15.328708,-14.524542 15.328708,-15.33144 0,-0.345859 -1.15256,-1.440946 -2.59321,-2.478423 -2.53559,-1.844406 -4.32202,-4.3228 -4.32202,-6.051902 0,-2.074935 4.20677,-11.066341 5.82032,-12.622537 1.67117,-1.556088 2.01689,-1.613918 6.16603,-1.440941 l 4.43726,0.172977 V 53.33711 l -4.43726,0.172978 c -4.14914,0.172929 -4.49486,0.11528 -6.16603,-1.440891 -1.61355,-1.556196 -5.82032,-10.547602 -5.82032,-12.622536 0,-1.729126 1.78643,-4.207494 4.32202,-6.051897 1.44065,-1.03748 2.59321,-2.132563 2.59321,-2.478422 0,-0.806923 -14.521928,-15.331439 -15.328708,-15.331439 -0.34573,0 -1.44065,1.152733 -2.47792,2.593674 -1.844075,2.536022 -4.322001,4.322774 -6.050822,4.322774 -2.074539,0 -11.064284,-4.207546 -12.620228,-5.821366 -1.556006,-1.671473 -1.613617,-2.017286 -1.440636,-6.167175 l 0.17295,-4.4380302 H 53.339071 l 0.172964,4.4380302 c 0.172905,4.149889 0.115187,4.495702 -1.440651,6.167175 -1.555917,1.61382 -10.545676,5.821366 -12.620247,5.821366 -1.728789,0 -5.803972,-4.939863 -5.803972,-4.939863 L 31.21056,15.067153 c 0,0 -15.616808,15.561005 -15.616808,15.906843 z"
		style="fill: #5b5bd6; stroke: #000000; stroke-width: 1.25;"
		id="inner"
	/>
	<path
		d="M 57.249294,101.41417 A 18.204096,18.204027 0 0 1 37.710608,94.171805 16.847193,16.847129 0 0 1 34.831604,81.429201 15.981456,15.981395 0 0 1 35.379251,79.289073 l 0.43163,-1.316037 1.174126,0.862376 a 29.561647,29.561535 0 0 0 8.964872,4.479187 l 0.851784,0.258417 -0.07849,0.850087 a 5.1378323,5.1378127 0 0 0 0.924359,3.407481 5.4818244,5.4818035 0 0 0 5.882766,2.183451 5.0477699,5.0477509 0 0 0 1.40769,-0.618657 L 77.856201,74.790647 a 4.7716096,4.7715916 0 0 0 2.15324,-3.190366 5.0916152,5.0915958 0 0 0 -0.86766,-3.840762 5.4859543,5.4859333 0 0 0 -5.885064,-2.184673 5.045837,5.0458179 0 0 0 -1.405849,0.618219 l -8.745383,5.574941 A 16.723304,16.723241 0 0 1 58.451699,73.811651 18.20401,18.203942 0 0 1 38.913251,66.569211 16.845963,16.845899 0 0 1 36.034273,53.82669 15.80564,15.805581 0 0 1 43.17772,43.23783 L 66.093984,28.631869 a 16.697734,16.697673 0 0 1 4.656879,-2.046108 18.204096,18.204027 0 0 1 19.53833,7.242349 16.847193,16.847129 0 0 1 2.878987,12.742604 16.167204,16.167143 0 0 1 -0.547638,2.140131 l -0.431609,1.316036 -1.17352,-0.86108 a 29.538098,29.537985 0 0 0 -8.9655,-4.481098 l -0.851777,-0.258509 0.07853,-0.850084 a 5.1478489,5.1478292 0 0 0 -0.924357,-3.407406 5.4818244,5.4818035 0 0 0 -5.882765,-2.183434 5.0477699,5.0477509 0 0 0 -1.407671,0.618659 l -22.918227,14.60534 a 4.7638778,4.7638597 0 0 0 -2.15156,3.18949 5.0840585,5.0840392 0 0 0 0.86599,3.8412 5.4860423,5.4860213 0 0 0 5.885046,2.184673 5.0656071,5.0655877 0 0 0 1.407603,-0.618659 l 8.744258,-5.572841 a 16.675064,16.675001 0 0 1 4.653297,-2.045322 18.20401,18.203942 0 0 1 19.538377,7.242441 16.845963,16.845899 0 0 1 2.879006,12.74254 15.813724,15.813663 0 0 1 -7.143456,10.590517 L 61.905954,99.368041 a 16.697734,16.697673 0 0 1 -4.656841,2.046129"
		style="fill: #fdfdff; stroke-width: 1.25;"
		id="svelte"
	/>
	<rect
		width="61.301708"
		height="27.828022"
		x="66.01651"
		y="99.490196"
		ry="2.3583069"
		stroke-width="2.61356"
		fill="#fdfdff"
		stroke="#171625"
		id="rect"
	/>
	<g fill="#171625" id="g2" transform="matrix(0.44628099,0,0,0.44628099,69.604176,105.80205)">
		<path
			d="M 4.618,27.925 C 4.319,28.224 4.027,28.403 3.744,28.463 3.46,28.523 2.705,28.568 1.48,28.598 H 0 v 2.062 h 0.493 c 0.508,-0.09 2.66,-0.135 6.456,-0.135 3.796,0 5.948,0.045 6.456,0.135 h 0.493 v -2.062 h -1.48 C 10.654,28.569 9.653,28.389 9.414,28.06 9.324,27.941 9.279,26.476 9.279,23.666 v -4.259 l 2.062,-2.018 a 83.544,83.544 0 0 0 2.063,-1.972 c 0.209,-0.209 0.388,-0.373 0.538,-0.493 l 3.901,5.873 c 2.331,3.587 3.661,5.62 3.99,6.098 0.09,0.179 0.135,0.359 0.135,0.538 0,0.778 -0.688,1.166 -2.062,1.166 h -0.359 v 2.062 h 0.493 c 0.628,-0.09 2.764,-0.135 6.412,-0.135 0.269,0 0.673,0.008 1.211,0.022 0.538,0.015 0.956,0.022 1.255,0.022 0.298,0 0.68,0.008 1.143,0.022 0.463,0.015 0.807,0.03 1.031,0.045 0.224,0.015 0.366,0.022 0.426,0.022 h 0.359 V 28.597 H 30.935 C 29.68,28.568 28.783,28.403 28.245,28.104 A 3.197,3.197 0 0 1 27.169,27.073 L 21.99,19.294 c -3.273,-4.917 -4.91,-7.39 -4.91,-7.42 0,-0.029 1.33,-1.33 3.99,-3.901 2.66,-2.57 4.065,-3.93 4.215,-4.08 C 26.6,2.817 28.379,2.219 30.62,2.1 h 0.628 V 0.037 h -0.269 c -0.03,0 -0.135,0.008 -0.314,0.022 -0.179,0.015 -0.434,0.03 -0.762,0.045 a 18.99,18.99 0 0 1 -0.852,0.022 c -0.209,0 -0.523,0.008 -0.942,0.022 C 27.69,0.163 27.362,0.17 27.123,0.17 23.715,0.17 21.757,0.125 21.25,0.035 h -0.448 v 2.062 h 0.179 l 0.202,0.022 0.247,0.022 c 0.836,0.209 1.255,0.643 1.255,1.3 -0.06,0.24 -0.12,0.404 -0.179,0.493 -0.06,0.12 -2.272,2.317 -6.636,6.591 L 9.324,16.892 9.279,9.942 c 0,-4.663 0.015,-7.024 0.045,-7.084 0.06,-0.508 0.897,-0.762 2.511,-0.762 h 2.062 V 0.037 H 13.404 C 12.895,0.127 10.743,0.172 6.948,0.172 3.152,0.172 1,0.127 0.492,0.037 H 0 v 2.062 h 1.48 c 1.225,0.03 1.98,0.075 2.264,0.135 0.284,0.06 0.575,0.24 0.874,0.538 z M 39.542,11.067 h 1.793 V 10.798 C 41.364,10.679 41.409,10.32 41.47,9.722 41.709,6.524 42.306,4.521 43.263,3.714 44.01,3.086 45.026,2.668 46.312,2.459 46.61,2.43 47.462,2.414 48.868,2.414 h 1.211 c 0.687,0 1.113,0.022 1.278,0.067 0.164,0.045 0.291,0.202 0.381,0.471 0.029,0.06 0.045,4.23 0.045,12.509 v 12.375 c -0.24,0.329 -0.613,0.538 -1.121,0.628 -1.076,0.09 -2.421,0.135 -4.035,0.135 h -1.345 v 2.062 h 0.583 c 0.628,-0.09 3.377,-0.135 8.25,-0.135 4.872,0 7.622,0.045 8.25,0.135 h 0.583 v -2.062 h -1.345 c -1.614,0 -2.959,-0.045 -4.035,-0.135 -0.509,-0.09 -0.882,-0.298 -1.121,-0.628 V 15.461 c 0,-8.279 0.015,-12.449 0.045,-12.509 0.09,-0.269 0.216,-0.426 0.381,-0.471 0.164,-0.045 0.59,-0.067 1.278,-0.067 h 1.211 c 1.674,0 2.825,0.075 3.452,0.224 1.136,0.329 1.957,0.807 2.466,1.435 0.747,0.867 1.225,2.75 1.435,5.649 0.06,0.598 0.104,0.957 0.135,1.076 v 0.269 h 1.793 v -0.269 c 0,-0.06 -0.134,-1.763 -0.404,-5.111 C 67.97,2.34 67.82,0.636 67.791,0.576 V 0.306 H 40.394 v 0.269 c 0,0.06 -0.135,1.764 -0.404,5.111 -0.269,3.348 -0.419,5.052 -0.448,5.111 z m 60.461,19.593 v -2.062 h -0.359 c -0.658,-0.06 -1.226,-0.254 -1.704,-0.583 -0.478,-0.329 -0.717,-0.702 -0.717,-1.121 0,-0.209 0.015,-0.329 0.045,-0.359 0.029,-0.09 1.031,-1.629 3.004,-4.618 0.448,-0.687 0.836,-1.293 1.166,-1.816 0.329,-0.523 0.605,-0.956 0.829,-1.3 0.224,-0.343 0.411,-0.62 0.56,-0.829 0.149,-0.209 0.254,-0.343 0.314,-0.404 l 0.135,-0.135 1.659,2.556 a 514.118,514.118 0 0 1 3.273,5.111 c 1.076,1.704 1.614,2.6 1.614,2.69 0,0.209 -0.314,0.397 -0.942,0.56 -0.628,0.165 -1.196,0.247 -1.704,0.247 h -0.269 v 2.062 h 0.493 c 0.687,-0.09 2.869,-0.135 6.546,-0.135 3.318,0 5.201,0.045 5.649,0.135 H 120 v -2.062 h -1.39 c -1.166,-0.029 -1.958,-0.09 -2.376,-0.179 -0.419,-0.09 -0.747,-0.269 -0.986,-0.538 -0.09,-0.09 -1.667,-2.526 -4.73,-7.308 -3.064,-4.782 -4.596,-7.203 -4.596,-7.263 0,-0.029 0.986,-1.584 2.959,-4.663 2.092,-3.139 3.183,-4.753 3.273,-4.842 1.016,-1.046 2.75,-1.614 5.201,-1.704 h 0.762 V 0.037 h -0.359 c -0.359,0.09 -2.003,0.135 -4.932,0.135 -3.468,0 -5.396,-0.045 -5.784,-0.135 h -0.404 v 2.062 h 0.359 c 0.926,0.09 1.614,0.389 2.062,0.897 0.388,0.389 0.493,0.747 0.314,1.076 0,0.03 -0.778,1.248 -2.331,3.654 -1.555,2.406 -2.347,3.609 -2.376,3.609 -0.06,0 -0.979,-1.397 -2.757,-4.192 -1.779,-2.795 -2.668,-4.237 -2.668,-4.327 0.06,-0.149 0.404,-0.306 1.031,-0.471 0.628,-0.164 1.195,-0.247 1.704,-0.247 H 102.2 V 0.037 h -0.493 c -0.658,0.09 -2.84,0.135 -6.546,0.135 -3.318,0 -5.201,-0.045 -5.649,-0.135 h -0.404 v 2.062 h 1.525 c 1.614,0 2.69,0.224 3.228,0.673 0.09,0.09 1.464,2.212 4.125,6.367 2.66,4.155 3.99,6.262 3.99,6.322 0,0.03 -1.188,1.868 -3.564,5.515 a 2726.32,2726.32 0 0 1 -3.744,5.739 c -0.957,1.166 -2.765,1.793 -5.425,1.883 H 88.48 v 2.062 h 0.359 c 0.359,-0.09 2.002,-0.135 4.932,-0.135 3.467,0 5.395,0.045 5.784,0.135 z"
			id="ktx"
		/>
		<path
			d="m 37.736,15.499 h -3.429 c -2.264,0 -3.396,-0.011 -3.396,-0.034 l 1.715,-5.077 1.681,-5.043 0.672,1.984 a 629.242,629.242 0 0 1 1.715,5.077 z m -6.153,8.573 v -1.547 h -0.168 c -0.493,0 -0.958,-0.095 -1.395,-0.286 -0.437,-0.19 -0.723,-0.431 -0.857,-0.723 a 0.491,0.491 0 0 1 -0.101,-0.303 c 0,-0.134 0.224,-0.863 0.672,-2.185 l 0.672,-1.984 h 7.834 l 0.807,2.387 c 0.538,1.614 0.807,2.443 0.807,2.488 0,0.403 -0.785,0.605 -2.353,0.605 h -0.437 v 1.547 H 37.4 c 0.336,-0.067 1.95,-0.101 4.841,-0.101 2.51,0 3.934,0.034 4.27,0.101 h 0.303 v -1.547 h -1.009 c -1.166,-0.022 -1.872,-0.146 -2.118,-0.37 A 1.261,1.261 0 0 1 43.452,21.818 C 42.936,20.227 41.597,16.237 39.434,9.849 37.271,3.461 36.178,0.256 36.156,0.233 36.066,0.101 35.797,0.023 35.348,0 h -0.303 c -0.359,0 -0.572,0.09 -0.639,0.269 -0.023,0.023 -0.611,1.754 -1.765,5.194 a 16100.31,16100.31 0 0 1 -5.262,15.65 c -0.449,0.874 -1.479,1.345 -3.093,1.412 h -0.504 v 1.547 h 0.235 c 0.269,-0.067 1.401,-0.101 3.396,-0.101 2.174,0 3.463,0.034 3.866,0.101 z m 36.735,13.734 c -0.299,0.299 -0.591,0.478 -0.874,0.538 -0.284,0.06 -1.039,0.105 -2.264,0.135 H 63.7 v 2.062 h 26.229 v -0.135 c 0.06,-0.09 0.381,-2.085 0.964,-5.986 0.583,-3.901 0.889,-5.896 0.919,-5.986 v -0.135 h -1.793 v 0.135 c -0.03,0.06 -0.105,0.464 -0.224,1.211 -0.269,1.793 -0.613,3.244 -1.031,4.349 -0.509,1.375 -1.248,2.399 -2.219,3.071 -0.972,0.673 -2.324,1.114 -4.058,1.323 -0.419,0.03 -1.973,0.045 -4.663,0.045 h -2.287 c -1.375,0 -2.152,-0.074 -2.331,-0.224 -0.09,-0.06 -0.15,-0.164 -0.179,-0.314 -0.03,-0.06 -0.045,-2.107 -0.045,-6.142 v -6.008 h 2.421 c 1.943,0.03 3.139,0.12 3.587,0.269 0.836,0.24 1.405,0.666 1.704,1.278 0.298,0.613 0.478,1.547 0.538,2.802 v 0.897 h 1.793 V 18.437 h -1.793 v 0.897 c -0.06,1.255 -0.24,2.19 -0.538,2.802 -0.299,0.613 -0.867,1.039 -1.704,1.278 -0.448,0.15 -1.644,0.24 -3.587,0.269 h -2.421 v -5.425 c 0,-3.646 0.015,-5.499 0.045,-5.56 0.09,-0.298 0.269,-0.463 0.538,-0.493 0.239,-0.06 1.853,-0.09 4.842,-0.09 1.733,0 2.75,0.015 3.049,0.045 2.451,0.15 4.177,0.74 5.179,1.771 1.001,1.031 1.681,2.952 2.04,5.761 0.06,0.538 0.104,0.852 0.135,0.942 v 0.179 h 1.793 v -0.179 c 0,-0.029 -0.209,-1.763 -0.628,-5.201 L 89.347,10.232 V 10.053 H 63.7 v 2.062 h 1.48 c 1.225,0.03 1.98,0.075 2.264,0.135 0.284,0.06 0.575,0.24 0.874,0.538 z"
			id="ae"
		/>
	</g>
</svg>