<svg width="128" height="128" viewBox="0 0 128 128">
	<path
		d="m 11.100701,28.918647 c -0.733282,2.498112 0.271805,6.043759 5.054815,9.156148 l 1.383026,0.922199 -1.959273,4.726239 -1.901712,4.726259 -4.0914828,-0.345838 c -5.0711363,-0.461087 -7.4338298,0.691648 -8.3558571,4.149869 -0.80676279,2.824233 -0.80676279,20.576465 0,23.400671 0.9220273,3.458223 3.2847208,4.611007 8.3558571,4.149893 l 4.0914828,-0.345811 1.901712,4.726237 1.959273,4.726237 -1.383026,0.922202 c -4.840651,3.170013 -6.511817,6.109526 -5.244025,9.394845 0.749152,2.017283 15.789701,17.060593 17.806615,17.809853 3.28472,1.26804 6.223692,-0.40346 9.393164,-5.24496 l 0.921998,-1.38325 4.725401,1.95964 4.782996,1.90204 -0.403358,3.86169 c -0.461044,4.78384 0.518608,7.14695 3.457595,8.41499 2.420273,0.97983 20.687947,1.15276 24.087919,0.17298 3.457578,-0.92217 4.610089,-3.28534 4.149106,-8.35736 l -0.345779,-4.09224 4.725403,-1.90204 4.725371,-1.95962 0.922028,1.38327 c 3.169469,4.84149 6.108413,6.51299 9.450777,5.24494 2.016903,-0.80692 16.999813,-15.79255 17.748973,-17.809865 1.26779,-3.285319 -0.40339,-6.224802 -5.24404,-9.394842 l -1.38303,-0.922203 1.95933,-4.72626 1.90163,-4.726236 4.09153,0.345807 c 3.51521,0.288184 4.3796,0.172979 5.93552,-0.806923 2.5932,-1.613819 3.05421,-3.91931 3.05421,-15.043253 0,-11.123993 -0.46101,-13.429483 -3.05421,-15.043305 -1.55592,-0.979803 -2.42031,-1.095082 -5.93552,-0.806924 l -4.09153,0.345811 -1.90163,-4.726236 -1.95933,-4.726235 1.38303,-0.9222 c 4.84065,-3.17004 6.51183,-6.109524 5.24404,-9.394818 C 116.31054,26.662714 101.27001,11.619461 99.253085,10.870138 95.968363,9.6021259 93.029419,11.2736 89.85995,16.115113 l -0.922028,1.38329 -4.725371,-1.959631 -4.725403,-1.902054 0.345779,-4.0922441 C 80.29391,4.4724293 79.141399,2.1092863 75.683821,1.187137 c -2.708459,-0.74932264 -21.033727,-0.74932264 -23.68453,0 v -5.46e-5 c -1.152542,0.3458613 -2.362723,1.2680633 -3.054237,2.4207942 -0.979653,1.5561705 -1.094917,2.4207698 -0.806747,5.9365943 l 0.345749,4.0922421 -4.725387,1.902056 -4.725401,1.959631 -0.921998,-1.440943 c -0.491149,-0.767591 -5.354422,-6.544866 -9.364521,-5.187393 -3.138626,1.062467 -6.480682,4.548649 -9.48592,7.527247 -3.005237,2.978599 -7.426846,8.023224 -8.160128,10.521336 z"
		style="fill: #e0dffe; stroke: #000000; stroke-width: 1.25;"
		id="outer"
	/>
	<path
		d="m 15.593752,30.973996 c 0,0.288205 1.15251,1.383288 2.593191,2.420768 2.535555,1.844403 4.321982,4.322771 4.321982,6.051897 0,2.074934 -4.206747,11.06634 -5.820302,12.622536 -1.671166,1.556303 -2.016946,1.613868 -6.166038,1.440891 L 6.0853511,53.33711 v 21.325734 l 4.4372339,-0.172977 c 4.149092,-0.172878 4.494872,-0.115222 6.166038,1.440941 1.613555,1.556196 5.820302,10.547602 5.820302,12.622537 0,1.729123 -1.786427,4.207496 -4.321982,6.051902 -1.440681,1.037476 -2.593191,2.132564 -2.593191,2.478423 0,0.806898 14.521879,15.33144 15.328655,15.33144 0.345779,0 1.440666,-1.15271 2.477929,-2.59366 1.844069,-2.53604 4.322013,-4.32279 6.050802,-4.32279 2.07457,0 11.06433,4.20754 12.620246,5.82138 1.555827,1.67143 1.613617,2.01728 1.440652,6.16712 l -0.172964,4.43806 h 21.321835 l -0.17295,-4.43806 c -0.172874,-4.14984 -0.115186,-4.49567 1.440635,-6.16712 1.555944,-1.61384 10.545689,-5.82138 12.620228,-5.82138 1.728821,0 4.206749,1.78677 6.050822,4.32279 1.03727,1.44095 2.13219,2.59366 2.47792,2.59366 0.80678,0 15.328708,-14.524542 15.328708,-15.33144 0,-0.345859 -1.15256,-1.440946 -2.59321,-2.478423 -2.53559,-1.844406 -4.32202,-4.3228 -4.32202,-6.051902 0,-2.074935 4.20677,-11.066341 5.82032,-12.622537 1.67117,-1.556088 2.01689,-1.613918 6.16603,-1.440941 l 4.43726,0.172977 V 53.33711 l -4.43726,0.172978 c -4.14914,0.172929 -4.49486,0.11528 -6.16603,-1.440891 -1.61355,-1.556196 -5.82032,-10.547602 -5.82032,-12.622536 0,-1.729126 1.78643,-4.207494 4.32202,-6.051897 1.44065,-1.03748 2.59321,-2.132563 2.59321,-2.478422 0,-0.806923 -14.521928,-15.331439 -15.328708,-15.331439 -0.34573,0 -1.44065,1.152733 -2.47792,2.593674 -1.844075,2.536022 -4.322001,4.322774 -6.050822,4.322774 -2.074539,0 -11.064284,-4.207546 -12.620228,-5.821366 -1.556006,-1.671473 -1.613617,-2.017286 -1.440636,-6.167175 l 0.17295,-4.4380302 H 53.339071 l 0.172964,4.4380302 c 0.172905,4.149889 0.115187,4.495702 -1.440651,6.167175 -1.555917,1.61382 -10.545676,5.821366 -12.620247,5.821366 -1.728789,0 -5.803972,-4.939863 -5.803972,-4.939863 L 31.21056,15.067153 c 0,0 -15.616808,15.561005 -15.616808,15.906843 z"
		style="fill: #5b5bd6; stroke: #000000; stroke-width: 1.25;"
		id="inner"
	/>
	<path
		d="M 57.249294,101.41417 A 18.204096,18.204027 0 0 1 37.710608,94.171805 16.847193,16.847129 0 0 1 34.831604,81.429201 15.981456,15.981395 0 0 1 35.379251,79.289073 l 0.43163,-1.316037 1.174126,0.862376 a 29.561647,29.561535 0 0 0 8.964872,4.479187 l 0.851784,0.258417 -0.07849,0.850087 a 5.1378323,5.1378127 0 0 0 0.924359,3.407481 5.4818244,5.4818035 0 0 0 5.882766,2.183451 5.0477699,5.0477509 0 0 0 1.40769,-0.618657 L 77.856201,74.790647 a 4.7716096,4.7715916 0 0 0 2.15324,-3.190366 5.0916152,5.0915958 0 0 0 -0.86766,-3.840762 5.4859543,5.4859333 0 0 0 -5.885064,-2.184673 5.045837,5.0458179 0 0 0 -1.405849,0.618219 l -8.745383,5.574941 A 16.723304,16.723241 0 0 1 58.451699,73.811651 18.20401,18.203942 0 0 1 38.913251,66.569211 16.845963,16.845899 0 0 1 36.034273,53.82669 15.80564,15.805581 0 0 1 43.17772,43.23783 L 66.093984,28.631869 a 16.697734,16.697673 0 0 1 4.656879,-2.046108 18.204096,18.204027 0 0 1 19.53833,7.242349 16.847193,16.847129 0 0 1 2.878987,12.742604 16.167204,16.167143 0 0 1 -0.547638,2.140131 l -0.431609,1.316036 -1.17352,-0.86108 a 29.538098,29.537985 0 0 0 -8.9655,-4.481098 l -0.851777,-0.258509 0.07853,-0.850084 a 5.1478489,5.1478292 0 0 0 -0.924357,-3.407406 5.4818244,5.4818035 0 0 0 -5.882765,-2.183434 5.0477699,5.0477509 0 0 0 -1.407671,0.618659 l -22.918227,14.60534 a 4.7638778,4.7638597 0 0 0 -2.15156,3.18949 5.0840585,5.0840392 0 0 0 0.86599,3.8412 5.4860423,5.4860213 0 0 0 5.885046,2.184673 5.0656071,5.0655877 0 0 0 1.407603,-0.618659 l 8.744258,-5.572841 a 16.675064,16.675001 0 0 1 4.653297,-2.045322 18.20401,18.203942 0 0 1 19.538377,7.242441 16.845963,16.845899 0 0 1 2.879006,12.74254 15.813724,15.813663 0 0 1 -7.143456,10.590517 L 61.905954,99.368041 a 16.697734,16.697673 0 0 1 -4.656841,2.046129"
		style="fill: #fdfdff; stroke-width: 1.25;"
		id="svelte"
	/>
	<rect
		width="40.786129"
		height="40.786129"
		x="86.606934"
		y="86.606934"
		ry="2.0915861"
		stroke-width="1.21387"
		fill="#13131e"
		id="rect"
	/>
	<g id="g2" transform="matrix(0.14285714,0,0,0.14285714,88,88.000001)">
		<circle cx="219.5" cy="46.5" r="46.5" fill="#cb7676" id="circle1" />
		<rect y="48" width="266" height="65" fill="#4b9978" id="rect2" x="0" />
		<path
			d="m 109.463,144.426 c -0.451,-5.634 -2.564,-10.029 -6.339,-13.184 -3.7188,-3.156 -9.3814,-4.733 -16.9879,-4.733 -4.8456,0 -8.8179,0.591 -11.9169,1.775 -3.0426,1.127 -5.2964,2.676 -6.7613,4.648 -1.465,1.972 -2.2256,4.226 -2.282,6.761 -0.1127,2.085 0.2536,3.973 1.0988,5.663 0.9015,1.634 2.3101,3.127 4.2258,4.479 1.9157,1.296 4.3667,2.48 7.353,3.55 2.9862,1.071 6.5359,2.029 10.6491,2.874 l 14.1984,3.042 c 9.579,2.029 17.777,4.705 24.595,8.029 6.817,3.325 12.396,7.241 16.734,11.748 4.339,4.451 7.522,9.466 9.55,15.044 2.085,5.578 3.156,11.663 3.212,18.256 -0.056,11.381 -2.902,21.016 -8.536,28.905 -5.635,7.888 -13.692,13.888 -24.172,18.002 -10.424,4.113 -22.96,6.169 -37.6098,6.169 -15.044,0 -28.1723,-2.225 -39.3849,-6.676 C 35.9331,254.326 27.2561,247.48 21.0582,238.24 14.9166,228.943 11.8177,217.054 11.7613,202.574 h 44.6249 c 0.2817,5.296 1.6058,9.747 3.9723,13.354 2.3665,3.606 5.6908,6.338 9.973,8.198 4.3385,1.859 9.494,2.789 15.4665,2.789 5.0147,0 9.2124,-0.62 12.593,-1.86 3.381,-1.239 5.944,-2.958 7.691,-5.155 1.747,-2.198 2.648,-4.705 2.705,-7.522 -0.057,-2.648 -0.93,-4.959 -2.62,-6.931 -1.634,-2.028 -4.339,-3.831 -8.114,-5.409 -3.7751,-1.634 -8.8743,-3.155 -15.2976,-4.564 L 65.514,191.756 c -15.3257,-3.325 -27.4116,-8.875 -36.2577,-16.65 -8.7897,-7.832 -13.1564,-18.509 -13.1001,-32.032 -0.0563,-10.987 2.8736,-20.594 8.7898,-28.82 5.9725,-8.283 14.2269,-14.7343 24.7634,-19.3545 10.5927,-4.6202 22.735,-6.9304 36.4267,-6.9304 13.9739,0 26.0589,2.3383 36.2579,7.0149 10.198,4.6766 18.058,11.269 23.58,19.777 5.578,8.452 8.395,18.34 8.452,29.665 z"
			fill="#83d0da"
		/>
		<rect x="217" width="266" height="65" transform="rotate(90,217,0)" fill="#e6cc78" y="0" />
	</g>
</svg>